<svg xmlns="http://www.w3.org/2000/svg" version="1.1" xmlns:xlink="http://www.w3.org/1999/xlink" viewBox="0 0 200 200" width="200" height="200"><metadata><rdf:RDF xmlns:rdf="http://www.w3.org/1999/02/22-rdf-syntax-ns#" xmlns:dc="http://purl.org/dc/elements/1.1/"><rdf:Description><dc:creator>RealFaviconGenerator</dc:creator><dc:source>https://realfavicongenerator.net</dc:source></rdf:Description></rdf:RDF></metadata><rect width="200" height="200" fill="url('#gradient')"></rect><defs><linearGradient id="gradient" gradientTransform="rotate(45 0.5 0.5)"><stop offset="0%" stop-color="#0f3a21"></stop><stop offset="100%" stop-color="#2b4837"></stop></linearGradient></defs><g><g fill="#ffbf00" transform="matrix(2.693839493839494,0,0,2.693839493839494,18.10688880266366,119.15745603216516)" stroke="#ffbf00" stroke-width="0"><path d="M6.85 0L1.07 0L1.07-14.22L6.18-14.22Q8.93-14.22 10.36-13.21Q11.79-12.21 11.79-10.29L11.79-10.29Q11.79-9.19 11.28-8.41Q10.77-7.63 9.79-7.26L9.79-7.26Q10.90-6.96 11.49-6.16Q12.09-5.36 12.09-4.21L12.09-4.21Q12.09-2.12 10.77-1.07Q9.44-0.02 6.85 0L6.85 0ZM6.90-6.04L4.50-6.04L4.50-2.64L6.75-2.64Q7.68-2.64 8.17-3.06Q8.67-3.49 8.67-4.26L8.67-4.26Q8.67-6.04 6.90-6.04L6.90-6.04ZM4.50-11.57L4.50-8.29L6.29-8.29Q7.41-8.30 7.89-8.70Q8.37-9.10 8.37-9.88L8.37-9.88Q8.37-10.78 7.85-11.18Q7.33-11.57 6.18-11.57L6.18-11.57L4.50-11.57ZM17.63-14.22L17.63 0L14.21 0L14.21-14.22L17.63-14.22ZM31.88-14.22L31.88 0L28.48 0L23.44-8.85L23.44 0L20.01 0L20.01-14.22L23.44-14.22L28.47-5.37L28.47-14.22L31.88-14.22ZM45.69-7.60L45.69-1.76Q44.90-0.88 43.38-0.34Q41.86 0.20 40.04 0.20L40.04 0.20Q37.25 0.20 35.58-1.51Q33.91-3.22 33.79-6.27L33.79-6.27L33.78-7.50Q33.78-9.60 34.52-11.17Q35.26-12.73 36.65-13.58Q38.03-14.42 39.84-14.42L39.84-14.42Q42.50-14.42 43.97-13.21Q45.44-11.99 45.68-9.58L45.68-9.58L42.38-9.58Q42.21-10.77 41.62-11.28Q41.04-11.79 39.96-11.79L39.96-11.79Q38.67-11.79 37.97-10.69Q37.27-9.60 37.26-7.57L37.26-7.57L37.26-6.71Q37.26-4.58 37.98-3.51Q38.71-2.44 40.27-2.44L40.27-2.44Q41.61-2.44 42.27-3.04L42.27-3.04L42.27-5.24L39.88-5.24L39.88-7.60L45.69-7.60ZM59.73-7.47L59.73-6.82Q59.73-4.74 58.96-3.13Q58.18-1.53 56.76-0.67Q55.34 0.20 53.53 0.20Q51.71 0.20 50.30-0.64Q48.90-1.47 48.11-3.03Q47.32-4.58 47.29-6.59L47.29-6.59L47.29-7.39Q47.29-9.48 48.05-11.08Q48.82-12.68 50.25-13.54Q51.68-14.41 53.51-14.41L53.51-14.41Q55.31-14.41 56.73-13.55Q58.14-12.70 58.93-11.11Q59.72-9.52 59.73-7.47L59.73-7.47ZM56.24-6.76L56.24-7.41Q56.24-9.53 55.53-10.63Q54.82-11.73 53.51-11.73L53.51-11.73Q50.93-11.73 50.78-7.86L50.78-7.86L50.77-6.82Q50.77-4.73 51.46-3.60Q52.16-2.48 53.53-2.48L53.53-2.48Q54.82-2.48 55.53-3.58Q56.23-4.69 56.24-6.76L56.24-6.76Z"></path></g></g></svg>